<svg width="153" height="64" viewBox="0 0 153 64" fill="none" xmlns="http://www.w3.org/2000/svg">
<g clip-path="url(#clip0_3_5)">
<path d="M22.2694 54.5975L22.428 56.9648H22.2694C22.0554 56.2581 21.7501 55.7438 21.3537 55.4337C20.9573 55.1235 20.4817 54.9665 19.9267 54.9665C19.4629 54.9665 19.0428 55.0843 18.6662 55.3198C18.2896 55.5554 17.9963 55.9283 17.7783 56.4426C17.5642 56.9569 17.4572 57.5968 17.4572 58.3624C17.4572 58.9945 17.5563 59.5402 17.7624 60.0034C17.9646 60.4667 18.2738 60.82 18.6781 61.0673C19.0864 61.3147 19.5541 61.4364 20.0734 61.4364C20.5292 61.4364 20.9296 61.3382 21.2784 61.1459C21.6272 60.9535 22.0078 60.5688 22.424 59.9956L22.5865 60.1016C22.2337 60.7219 21.8254 61.1733 21.3537 61.4599C20.886 61.7465 20.3271 61.8879 19.681 61.8879C18.5195 61.8879 17.6157 61.4599 16.9815 60.6041C16.5058 59.9642 16.268 59.2143 16.268 58.3545C16.268 57.6597 16.4266 57.0197 16.7397 56.4348C17.0529 55.8498 17.4849 55.4023 18.032 55.0803C18.5829 54.7584 19.1815 54.6014 19.8355 54.6014C20.3429 54.6014 20.8424 54.7231 21.3339 54.9704C21.4766 55.045 21.5836 55.0843 21.6431 55.0843C21.7343 55.0843 21.8175 55.0529 21.8849 54.9861C21.9761 54.8919 22.0395 54.7663 22.0752 54.6014H22.2694V54.5975ZM25.6308 56.8784C26.3523 56.8784 26.927 57.1493 27.3631 57.6911C27.7317 58.1504 27.918 58.6843 27.918 59.2811C27.918 59.7011 27.815 60.1291 27.6128 60.5609C27.4106 60.9927 27.1292 61.3186 26.7685 61.5385C26.4078 61.7583 26.0114 61.8682 25.5714 61.8682C24.8539 61.8682 24.2831 61.5856 23.8629 61.0202C23.5062 60.5452 23.3278 60.0113 23.3278 59.4185C23.3278 58.9866 23.4348 58.5587 23.6528 58.1308C23.8669 57.7028 24.1523 57.3888 24.509 57.1846C24.8618 56.9805 25.2344 56.8784 25.6308 56.8784ZM25.4683 57.216C25.286 57.216 25.1036 57.271 24.9173 57.377C24.735 57.4869 24.5843 57.6714 24.4694 57.9423C24.3544 58.2132 24.2989 58.5587 24.2989 58.9827C24.2989 59.6658 24.4377 60.2547 24.7112 60.7533C24.9847 61.2479 25.3494 61.4953 25.7973 61.4953C26.1303 61.4953 26.4078 61.3579 26.6258 61.083C26.8438 60.8082 26.9548 60.3411 26.9548 59.6736C26.9548 58.8374 26.7724 58.1818 26.4078 57.7068C26.162 57.3809 25.8488 57.216 25.4683 57.216ZM29.9872 57.8677C30.5421 57.2121 31.0733 56.8823 31.5767 56.8823C31.8344 56.8823 32.0564 56.9491 32.2427 57.0747C32.429 57.2043 32.5756 57.4163 32.6906 57.7107C32.7659 57.9188 32.8055 58.2328 32.8055 58.6568V60.6708C32.8055 60.9653 32.8293 61.1655 32.8769 61.2754C32.9126 61.3579 32.976 61.4246 33.0592 61.4717C33.1425 61.5188 33.301 61.5424 33.527 61.5424V61.7308H31.1803V61.5424H31.2794C31.4974 61.5424 31.652 61.507 31.7432 61.4442C31.8304 61.3775 31.8938 61.2793 31.9256 61.1498C31.9414 61.0987 31.9454 60.9378 31.9454 60.6708V58.7354C31.9454 58.3074 31.8899 57.9934 31.7789 57.7971C31.6679 57.6008 31.4816 57.5066 31.216 57.5066C30.8077 57.5066 30.3994 57.7303 29.9951 58.1779V60.6748C29.9951 60.9928 30.0149 61.1851 30.0506 61.2636C30.1021 61.3618 30.1656 61.4325 30.2528 61.4796C30.336 61.5267 30.5104 61.5463 30.7681 61.5463V61.7347H28.4095V61.5463H28.5126C28.7544 61.5463 28.9169 61.4874 29.0041 61.3657C29.0874 61.244 29.131 61.0124 29.131 60.6748V58.9277C29.131 58.3624 29.1191 58.0208 29.0913 57.8952C29.0636 57.7696 29.0239 57.6871 28.9724 57.644C28.9209 57.6008 28.8456 57.5772 28.7584 57.5772C28.6593 57.5772 28.5443 57.6047 28.4095 57.6557L28.3303 57.4673L29.7652 56.8902H29.9872V57.8677ZM36.9756 56.8784V58.4762H36.8052C36.6743 57.9737 36.5079 57.6361 36.3017 57.4555C36.0996 57.2749 35.838 57.1846 35.5208 57.1846C35.279 57.1846 35.0848 57.2474 34.9381 57.3731C34.7915 57.4987 34.7162 57.64 34.7162 57.7931C34.7162 57.9855 34.7717 58.1504 34.8787 58.2839C34.9857 58.4252 35.2037 58.5744 35.5288 58.7314L36.2859 59.0926C36.9875 59.4342 37.3363 59.8778 37.3363 60.4353C37.3363 60.8632 37.1738 61.2087 36.8448 61.4678C36.5198 61.7308 36.1511 61.8604 35.7507 61.8604C35.4614 61.8604 35.1284 61.8093 34.7558 61.7112C34.6408 61.6798 34.5457 61.6602 34.4744 61.6602C34.3951 61.6602 34.3317 61.7033 34.2881 61.7858H34.1176V60.1016H34.2881C34.3872 60.5805 34.5695 60.9456 34.843 61.189C35.1165 61.4325 35.4217 61.5542 35.7626 61.5542C36.0005 61.5542 36.1947 61.4874 36.3453 61.3461C36.496 61.2087 36.5713 61.0399 36.5713 60.8436C36.5713 60.608 36.488 60.4117 36.3176 60.2508C36.1511 60.0898 35.8142 59.8896 35.3108 59.6422C34.8113 59.3949 34.4823 59.1751 34.3277 58.9748C34.1731 58.7785 34.0938 58.5312 34.0938 58.2368C34.0938 57.8481 34.2286 57.5262 34.4942 57.2631C34.7598 57.0001 35.1086 56.8706 35.5327 56.8706C35.719 56.8706 35.945 56.9098 36.2106 56.9923C36.385 57.0433 36.5039 57.0708 36.5594 57.0708C36.6149 57.0708 36.6585 57.059 36.6902 57.0354C36.7219 57.0119 36.7576 56.9569 36.7972 56.8706H36.9756V56.8784ZM39.4332 55.469V57.0158H40.5431V57.3613L39.4332 57.3731V60.4235C39.4332 60.7297 39.4768 60.9339 39.568 61.0399C39.6552 61.1459 39.7662 61.2008 39.905 61.2008C40.0199 61.2008 40.1309 61.1655 40.2379 61.0948C40.345 61.0242 40.4282 60.9182 40.4877 60.7808H40.6898C40.5709 61.1184 40.3965 61.3736 40.1745 61.5463C39.9525 61.7151 39.7226 61.8015 39.4887 61.8015C39.3302 61.8015 39.1756 61.7583 39.021 61.668C38.8704 61.5816 38.7554 61.456 38.6841 61.2911C38.6127 61.1262 38.5731 60.8789 38.5731 60.5373V57.3613H37.8199V57.1964C38.0102 57.1218 38.2044 56.9962 38.4066 56.8195C38.6048 56.6389 38.7832 56.4269 38.9417 56.1796C39.021 56.05 39.132 55.8106 39.2747 55.4651H39.4332V55.469ZM42.3943 56.8784V57.9423C42.7907 57.2357 43.195 56.8784 43.6112 56.8784C43.7975 56.8784 43.9561 56.9373 44.079 57.0512C44.2019 57.165 44.2653 57.2985 44.2653 57.4477C44.2653 57.5811 44.2217 57.695 44.1345 57.7892C44.0433 57.8834 43.9363 57.9266 43.8174 57.9266C43.6984 57.9266 43.5637 57.8677 43.413 57.746C43.2624 57.6283 43.1514 57.5654 43.0801 57.5654C43.0166 57.5654 42.9493 57.6008 42.8779 57.6675C42.7233 57.8088 42.5648 58.0405 42.3983 58.3624V60.6119C42.3983 60.875 42.43 61.0713 42.4974 61.2047C42.541 61.299 42.6202 61.3736 42.7352 61.4324C42.8502 61.4953 43.0127 61.5227 43.2267 61.5227V61.7112H40.7929V61.5227C41.0347 61.5227 41.2131 61.4874 41.328 61.4089C41.4152 61.3539 41.4747 61.2676 41.5103 61.1459C41.5262 61.087 41.5381 60.9221 41.5381 60.6473V58.8296C41.5381 58.2839 41.5262 57.958 41.5024 57.852C41.4786 57.75 41.439 57.6714 41.3795 57.6243C41.3201 57.5772 41.2448 57.5537 41.1536 57.5537C41.0466 57.5537 40.9237 57.5811 40.7889 57.6322L40.7374 57.4437L42.1763 56.8666H42.3943V56.8784ZM48.7009 57.0158V59.8778C48.7009 60.4156 48.7128 60.7415 48.7406 60.8632C48.7683 60.981 48.808 61.0673 48.8634 61.1145C48.9189 61.1616 48.9863 61.1851 49.0616 61.1851C49.1687 61.1851 49.2876 61.1537 49.4224 61.0988L49.4937 61.2872L48.0707 61.8643H47.8368V60.8789C47.4285 61.3147 47.1193 61.5856 46.9053 61.6994C46.6912 61.8133 46.4653 61.8682 46.2274 61.8682C45.9618 61.8682 45.7319 61.7936 45.5337 61.6405C45.3395 61.4874 45.2008 61.2911 45.1255 61.0516C45.0501 60.8122 45.0105 60.4745 45.0105 60.0348V57.9345C45.0105 57.7107 44.9867 57.5576 44.9392 57.4712C44.8876 57.3848 44.8202 57.3181 44.7251 57.2749C44.63 57.2278 44.4556 57.2082 44.2058 57.2082V57.0197H45.8746V60.1762C45.8746 60.6159 45.95 60.9025 46.1045 61.0399C46.2591 61.1773 46.4454 61.2479 46.6635 61.2479C46.8141 61.2479 46.9806 61.2008 47.1708 61.1105C47.3572 61.0163 47.5831 60.8396 47.8408 60.5805V57.9148C47.8408 57.644 47.7892 57.4594 47.6901 57.3652C47.591 57.2671 47.3849 57.216 47.0757 57.2121V57.0237H48.7009V57.0158ZM53.8858 59.9367C53.7589 60.5609 53.5052 61.0359 53.1326 61.3657C52.76 61.6955 52.3477 61.8643 51.8919 61.8643C51.3528 61.8643 50.8811 61.6405 50.4807 61.193C50.0804 60.7454 49.8782 60.1408 49.8782 59.3753C49.8782 58.6372 50.1002 58.0365 50.5442 57.5733C50.9881 57.114 51.5232 56.8823 52.1416 56.8823C52.6094 56.8823 52.9899 57.004 53.2912 57.2514C53.5924 57.4948 53.7431 57.75 53.7431 58.013C53.7431 58.1425 53.6994 58.2485 53.6162 58.3271C53.533 58.4095 53.414 58.4488 53.2634 58.4488C53.0613 58.4488 52.9067 58.382 52.8076 58.2525C52.7441 58.1818 52.7045 58.0405 52.6847 57.8403C52.6649 57.6361 52.5975 57.4791 52.4746 57.3731C52.3517 57.271 52.1852 57.22 51.9712 57.22C51.6223 57.22 51.3449 57.3456 51.1348 57.6008C50.8533 57.9384 50.7146 58.382 50.7146 58.9356C50.7146 59.497 50.8533 59.9956 51.1308 60.4274C51.4123 60.8553 51.7849 61.0713 52.2605 61.0713C52.6014 61.0713 52.9067 60.9574 53.1722 60.7336C53.3625 60.5766 53.5488 60.29 53.7272 59.8739L53.8858 59.9367ZM55.943 55.469V57.0158H57.0529V57.3613L55.943 57.3731V60.4235C55.943 60.7297 55.9866 60.9339 56.0738 61.0399C56.1611 61.1459 56.272 61.2008 56.4108 61.2008C56.5257 61.2008 56.6367 61.1655 56.7438 61.0948C56.8508 61.0242 56.934 60.9182 56.9935 60.7808H57.1956C57.0767 61.1184 56.9023 61.3736 56.6803 61.5463C56.4584 61.7151 56.2284 61.8015 55.9946 61.8015C55.836 61.8015 55.6814 61.7583 55.5268 61.668C55.3762 61.5816 55.2612 61.456 55.1899 61.2911C55.1185 61.1262 55.0789 60.8789 55.0789 60.5373V57.3613H54.3258V57.1964C54.516 57.1218 54.7103 56.9962 54.9124 56.8195C55.1106 56.6389 55.289 56.4269 55.4475 56.1796C55.5268 56.05 55.6378 55.8106 55.7805 55.4651H55.943V55.469ZM58.7218 54.4169C58.8645 54.4169 58.9873 54.4679 59.0904 54.5661C59.1895 54.6681 59.241 54.7898 59.241 54.9312C59.241 55.0764 59.1895 55.1981 59.0904 55.3002C58.9873 55.4023 58.8645 55.4533 58.7218 55.4533C58.5751 55.4533 58.4522 55.4023 58.3491 55.3002C58.2461 55.1981 58.1946 55.0725 58.1946 54.9312C58.1946 54.7898 58.2461 54.6681 58.3452 54.5661C58.4482 54.4679 58.5751 54.4169 58.7218 54.4169ZM59.1499 56.8784V60.6669C59.1499 60.9613 59.1697 61.1537 59.2172 61.2519C59.2609 61.35 59.3243 61.4207 59.4075 61.4678C59.4908 61.5149 59.6493 61.5385 59.8713 61.5385V61.7269H57.5682V61.5385C57.7982 61.5385 57.9528 61.5149 58.032 61.4717C58.1113 61.4285 58.1747 61.3539 58.2223 61.2519C58.2699 61.1498 58.2897 60.9535 58.2897 60.663V58.8453C58.2897 58.3388 58.2738 58.0091 58.2421 57.8599C58.2183 57.75 58.1787 57.6754 58.1272 57.6322C58.0756 57.589 58.0043 57.5654 57.9171 57.5654C57.818 57.5654 57.703 57.5929 57.5643 57.644L57.4929 57.4555L58.92 56.8784H59.1499ZM62.7967 56.8784C63.5181 56.8784 64.0929 57.1493 64.5289 57.6911C64.8976 58.1504 65.0839 58.6843 65.0839 59.2811C65.0839 59.7011 64.9808 60.1291 64.7786 60.5609C64.5765 60.9927 64.295 61.3186 63.9343 61.5385C63.5736 61.7583 63.1772 61.8682 62.7372 61.8682C62.0198 61.8682 61.4489 61.5856 61.0288 61.0202C60.672 60.5452 60.4936 60.0113 60.4936 59.4185C60.4936 58.9866 60.6007 58.5587 60.8187 58.1308C61.0327 57.7028 61.3181 57.3888 61.6749 57.1846C62.0277 56.9805 62.4003 56.8784 62.7967 56.8784ZM62.6342 57.216C62.4518 57.216 62.2695 57.271 62.0832 57.377C61.9008 57.4869 61.7502 57.6714 61.6353 57.9423C61.5203 58.2132 61.4648 58.5587 61.4648 58.9827C61.4648 59.6658 61.6035 60.2547 61.8771 60.7533C62.1506 61.2479 62.5152 61.4953 62.9632 61.4953C63.2961 61.4953 63.5736 61.3579 63.7916 61.083C64.0096 60.8082 64.1206 60.3411 64.1206 59.6736C64.1206 58.8374 63.9383 58.1818 63.5736 57.7068C63.3279 57.3809 63.0147 57.216 62.6342 57.216ZM67.157 57.8677C67.712 57.2121 68.2431 56.8823 68.7465 56.8823C69.0042 56.8823 69.2262 56.9491 69.4125 57.0747C69.5988 57.2043 69.7455 57.4163 69.8604 57.7107C69.9357 57.9188 69.9754 58.2328 69.9754 58.6568V60.6708C69.9754 60.9653 69.9992 61.1655 70.0467 61.2754C70.0824 61.3579 70.1458 61.4246 70.2291 61.4717C70.3123 61.5188 70.4709 61.5424 70.6968 61.5424V61.7308H68.3502V61.5424H68.4492C68.6673 61.5424 68.8219 61.507 68.913 61.4442C69.0002 61.3775 69.0637 61.2793 69.0954 61.1498C69.1112 61.0987 69.1152 60.9378 69.1152 60.6708V58.7354C69.1152 58.3074 69.0597 57.9934 68.9487 57.7971C68.8377 57.6008 68.6514 57.5066 68.3858 57.5066C67.9776 57.5066 67.5693 57.7303 67.1649 58.1779V60.6748C67.1649 60.9928 67.1848 61.1851 67.2204 61.2636C67.272 61.3618 67.3354 61.4325 67.4226 61.4796C67.5058 61.5267 67.6803 61.5463 67.9379 61.5463V61.7347H65.5794V61.5463H65.6824C65.9242 61.5463 66.0868 61.4874 66.174 61.3657C66.2572 61.244 66.3008 61.0124 66.3008 60.6748V58.9277C66.3008 58.3624 66.2889 58.0208 66.2612 57.8952C66.2334 57.7696 66.1938 57.6871 66.1422 57.644C66.0907 57.6008 66.0154 57.5772 65.9282 57.5772C65.8291 57.5772 65.7141 57.6047 65.5794 57.6557L65.5001 57.4673L66.935 56.8902H67.157V57.8677ZM76.4168 61.0438C75.9292 61.4167 75.624 61.6327 75.4971 61.6916C75.3108 61.7779 75.1126 61.8211 74.9025 61.8211C74.5735 61.8211 74.304 61.7073 74.0899 61.4874C73.8759 61.2636 73.7728 60.9731 73.7728 60.608C73.7728 60.3803 73.8243 60.1801 73.9274 60.0113C74.0701 59.7796 74.3159 59.5598 74.6647 59.3517C75.0175 59.1476 75.6002 58.8963 76.4168 58.6019V58.4174C76.4168 57.9502 76.3415 57.6283 76.1908 57.4516C76.0402 57.2788 75.8222 57.1886 75.5368 57.1886C75.3227 57.1886 75.1483 57.2474 75.0215 57.3652C74.8907 57.4791 74.8233 57.6126 74.8233 57.7657L74.8352 58.064C74.8352 58.2211 74.7955 58.3428 74.7123 58.4291C74.629 58.5155 74.522 58.5587 74.3912 58.5587C74.2604 58.5587 74.1573 58.5155 74.0741 58.4252C73.9908 58.3349 73.9512 58.2132 73.9512 58.0601C73.9512 57.7657 74.1018 57.4948 74.4071 57.2474C74.7123 57.0001 75.1404 56.8784 75.6914 56.8784C76.1155 56.8784 76.4604 56.9491 76.7299 57.0904C76.9321 57.1964 77.0827 57.3613 77.1818 57.589C77.2452 57.7343 77.2769 58.0366 77.2769 58.492V60.0859C77.2769 60.5334 77.2849 60.8082 77.3047 60.9064C77.3205 61.0085 77.3523 61.0752 77.3879 61.1105C77.4276 61.1419 77.4751 61.1616 77.5267 61.1616C77.5822 61.1616 77.6297 61.1498 77.6733 61.1262C77.7447 61.0791 77.8874 60.9574 78.0935 60.7493V61.0359C77.705 61.5542 77.3324 61.8093 76.9796 61.8093C76.8092 61.8093 76.6744 61.7504 76.5714 61.6366C76.4723 61.5227 76.4207 61.3225 76.4168 61.0438ZM76.4168 60.7101V58.9199C75.8896 59.124 75.5526 59.2693 75.398 59.3557C75.1245 59.5048 74.9263 59.6619 74.8074 59.8268C74.6885 59.9916 74.629 60.1722 74.629 60.3646C74.629 60.6119 74.7043 60.8161 74.855 60.977C75.0056 61.1419 75.1761 61.2205 75.3703 61.2205C75.6359 61.2244 75.9847 61.0516 76.4168 60.7101ZM79.8337 57.8677C80.3886 57.2121 80.9198 56.8823 81.4232 56.8823C81.6809 56.8823 81.9028 56.9491 82.0891 57.0747C82.2755 57.2043 82.4221 57.4163 82.5371 57.7107C82.6124 57.9188 82.652 58.2328 82.652 58.6568V60.6708C82.652 60.9653 82.6758 61.1655 82.7234 61.2754C82.7591 61.3579 82.8225 61.4246 82.9057 61.4717C82.989 61.5188 83.1475 61.5424 83.3735 61.5424V61.7308H81.0268V61.5424H81.1259C81.3439 61.5424 81.4985 61.507 81.5897 61.4442C81.6769 61.3775 81.7403 61.2793 81.772 61.1498C81.7879 61.0987 81.7919 60.9378 81.7919 60.6708V58.7354C81.7919 58.3074 81.7364 57.9934 81.6254 57.7971C81.5144 57.6008 81.3281 57.5066 81.0625 57.5066C80.6542 57.5066 80.2459 57.7303 79.8416 58.1779V60.6748C79.8416 60.9928 79.8614 61.1851 79.8971 61.2636C79.9486 61.3618 80.0121 61.4325 80.0993 61.4796C80.1825 61.5267 80.3569 61.5463 80.6146 61.5463V61.7347H78.256V61.5463H78.3591C78.6009 61.5463 78.7634 61.4874 78.8506 61.3657C78.9339 61.244 78.9775 61.0124 78.9775 60.6748V58.9277C78.9775 58.3624 78.9656 58.0208 78.9378 57.8952C78.9101 57.7696 78.8704 57.6871 78.8189 57.644C78.7674 57.6008 78.6921 57.5772 78.6049 57.5772C78.5058 57.5772 78.3908 57.6047 78.256 57.6557L78.1768 57.4673L79.6117 56.8902H79.8337V57.8677ZM87.1115 61.1851C86.8816 61.4285 86.6516 61.6013 86.4336 61.7073C86.2117 61.8133 85.9738 61.8643 85.7201 61.8643C85.2008 61.8643 84.749 61.6523 84.3605 61.2205C83.972 60.7925 83.7818 60.239 83.7818 59.5637C83.7818 58.8885 83.9958 58.2721 84.4239 57.7146C84.856 57.1571 85.403 56.8784 86.0808 56.8784C86.4971 56.8784 86.8459 57.0119 87.1194 57.2749V56.4034C87.1194 55.8695 87.1075 55.5397 87.0797 55.418C87.052 55.2963 87.0124 55.2099 86.9569 55.1667C86.9014 55.1235 86.83 55.1 86.7468 55.1C86.6556 55.1 86.5367 55.1275 86.3861 55.1824L86.3187 54.994L87.7417 54.4169H87.9756V59.8542C87.9756 60.4039 87.9875 60.7376 88.0152 60.8593C88.043 60.977 88.0826 61.0634 88.1421 61.1105C88.1976 61.1576 88.265 61.1812 88.3403 61.1812C88.4354 61.1812 88.5583 61.1498 88.7169 61.0948L88.7724 61.2833L87.3533 61.8604H87.1154V61.1851H87.1115ZM87.1115 60.8239V58.4134C87.0916 58.1779 87.0282 57.9659 86.9252 57.7735C86.8221 57.5811 86.6834 57.4359 86.5129 57.3377C86.3425 57.2396 86.176 57.1925 86.0135 57.1925C85.7082 57.1925 85.4347 57.326 85.1969 57.5969C84.8798 57.9541 84.7252 58.4723 84.7252 59.1554C84.7252 59.8464 84.8758 60.3764 85.181 60.7454C85.4863 61.1105 85.8272 61.295 86.1998 61.295C86.5129 61.299 86.8142 61.138 87.1115 60.8239ZM95.075 61.1851C94.8451 61.4285 94.6152 61.6013 94.3972 61.7073C94.1752 61.8133 93.9374 61.8643 93.6837 61.8643C93.1644 61.8643 92.7125 61.6523 92.324 61.2205C91.9356 60.7925 91.7453 60.239 91.7453 59.5637C91.7453 58.8885 91.9594 58.2721 92.3875 57.7146C92.8195 57.1571 93.3666 56.8784 94.0444 56.8784C94.4606 56.8784 94.8094 57.0119 95.0829 57.2749V56.4034C95.0829 55.8695 95.0711 55.5397 95.0433 55.418C95.0156 55.2963 94.9759 55.2099 94.9204 55.1667C94.8649 55.1235 94.7936 55.1 94.7103 55.1C94.6191 55.1 94.5002 55.1275 94.3496 55.1824L94.2822 54.994L95.7053 54.4169H95.9391V59.8542C95.9391 60.4039 95.951 60.7376 95.9788 60.8593C96.0065 60.977 96.0462 61.0634 96.1056 61.1105C96.1611 61.1576 96.2285 61.1812 96.3038 61.1812C96.399 61.1812 96.5218 61.1498 96.6804 61.0948L96.7359 61.2833L95.3168 61.8604H95.079V61.1851H95.075ZM95.075 60.8239V58.4134C95.0552 58.1779 94.9918 57.9659 94.8887 57.7735C94.7856 57.5811 94.6469 57.4359 94.4764 57.3377C94.306 57.2396 94.1395 57.1925 93.977 57.1925C93.6718 57.1925 93.3983 57.326 93.1604 57.5969C92.8433 57.9541 92.6887 58.4723 92.6887 59.1554C92.6887 59.8464 92.8394 60.3764 93.1446 60.7454C93.4498 61.1105 93.7907 61.295 94.1633 61.295C94.4765 61.299 94.7817 61.138 95.075 60.8239ZM97.826 58.7942C97.822 59.4891 97.9925 60.0348 98.3413 60.4313C98.6861 60.8239 99.0944 61.0242 99.5622 61.0242C99.8714 61.0242 100.141 60.9417 100.375 60.7729C100.605 60.608 100.799 60.3136 100.954 59.9014L101.112 60.0034C101.041 60.4785 100.831 60.9064 100.482 61.2911C100.133 61.6759 99.697 61.8682 99.1737 61.8682C98.6029 61.8682 98.1153 61.6484 97.711 61.2087C97.3067 60.769 97.1006 60.1762 97.1006 59.4381C97.1006 58.6333 97.3107 58.0091 97.7269 57.5576C98.1431 57.1061 98.6663 56.8823 99.2926 56.8823C99.8238 56.8823 100.26 57.0551 100.601 57.4045C100.942 57.75 101.116 58.2171 101.116 58.7982H97.826V58.7942ZM97.826 58.4998H100.026C100.01 58.1975 99.9744 57.9855 99.9189 57.8638C99.8317 57.6714 99.7049 57.5223 99.5305 57.4123C99.36 57.3024 99.1817 57.2474 98.9953 57.2474C98.7099 57.2474 98.4523 57.3574 98.2263 57.5772C97.9964 57.801 97.8656 58.1072 97.826 58.4998ZM104.814 56.8784V58.4762H104.644C104.513 57.9737 104.347 57.6361 104.141 57.4555C103.938 57.2749 103.677 57.1846 103.36 57.1846C103.118 57.1846 102.924 57.2474 102.777 57.3731C102.63 57.4987 102.555 57.64 102.555 57.7931C102.555 57.9855 102.61 58.1504 102.717 58.2839C102.825 58.4252 103.043 58.5744 103.368 58.7314L104.125 59.0926C104.826 59.4342 105.175 59.8778 105.175 60.4353C105.175 60.8632 105.013 61.2087 104.684 61.4678C104.359 61.7308 103.99 61.8604 103.59 61.8604C103.3 61.8604 102.967 61.8093 102.595 61.7112C102.48 61.6798 102.384 61.6602 102.313 61.6602C102.234 61.6602 102.17 61.7033 102.127 61.7858H101.956V60.1016H102.127C102.226 60.5805 102.408 60.9456 102.682 61.189C102.955 61.4325 103.261 61.5542 103.601 61.5542C103.839 61.5542 104.033 61.4874 104.184 61.3461C104.335 61.2087 104.41 61.0399 104.41 60.8436C104.41 60.608 104.327 60.4117 104.156 60.2508C103.99 60.0898 103.653 59.8896 103.15 59.6422C102.65 59.3949 102.321 59.1751 102.166 58.9748C102.012 58.7785 101.933 58.5312 101.933 58.2368C101.933 57.8481 102.067 57.5262 102.333 57.2631C102.599 57.0001 102.947 56.8706 103.372 56.8706C103.558 56.8706 103.784 56.9098 104.049 56.9923C104.224 57.0433 104.343 57.0708 104.398 57.0708C104.454 57.0708 104.497 57.059 104.529 57.0354C104.561 57.0119 104.596 56.9569 104.636 56.8706H104.814V56.8784ZM107.098 54.4169C107.24 54.4169 107.363 54.4679 107.466 54.5661C107.565 54.6681 107.617 54.7898 107.617 54.9312C107.617 55.0764 107.565 55.1981 107.466 55.3002C107.363 55.4023 107.24 55.4533 107.098 55.4533C106.951 55.4533 106.828 55.4023 106.725 55.3002C106.622 55.1981 106.57 55.0725 106.57 54.9312C106.57 54.7898 106.622 54.6681 106.721 54.5661C106.82 54.4679 106.947 54.4169 107.098 54.4169ZM107.522 56.8784V60.6669C107.522 60.9613 107.542 61.1537 107.589 61.2519C107.633 61.35 107.696 61.4207 107.779 61.4678C107.863 61.5149 108.021 61.5385 108.243 61.5385V61.7269H105.94V61.5385C106.17 61.5385 106.325 61.5149 106.404 61.4717C106.483 61.4285 106.547 61.3539 106.594 61.2519C106.642 61.1498 106.662 60.9535 106.662 60.663V58.8453C106.662 58.3388 106.646 58.0091 106.614 57.8599C106.59 57.75 106.551 57.6754 106.499 57.6322C106.448 57.589 106.376 57.5654 106.289 57.5654C106.19 57.5654 106.075 57.5929 105.936 57.644L105.865 57.4555L107.292 56.8784H107.522ZM110.098 60.0034C109.809 59.8621 109.587 59.6697 109.432 59.4145C109.278 59.1633 109.199 58.8885 109.199 58.5822C109.199 58.119 109.377 57.7185 109.73 57.3848C110.082 57.0511 110.534 56.8823 111.089 56.8823C111.541 56.8823 111.934 56.9923 112.263 57.2082H113.266C113.416 57.2082 113.499 57.2121 113.523 57.22C113.547 57.2278 113.567 57.2435 113.575 57.2631C113.595 57.2946 113.606 57.3495 113.606 57.428C113.606 57.5183 113.598 57.5772 113.579 57.6126C113.571 57.6283 113.551 57.644 113.527 57.6518C113.499 57.6636 113.412 57.6675 113.266 57.6675H112.647C112.841 57.9148 112.937 58.2289 112.937 58.6137C112.937 59.0494 112.77 59.4263 112.429 59.7365C112.092 60.0466 111.636 60.2036 111.069 60.2036C110.836 60.2036 110.598 60.1683 110.352 60.1016C110.201 60.2351 110.098 60.3489 110.043 60.4471C109.991 60.5452 109.964 60.6276 109.964 60.6944C109.964 60.7533 109.991 60.8082 110.047 60.8632C110.106 60.9182 110.217 60.9574 110.38 60.981C110.479 60.9967 110.721 61.0085 111.109 61.0202C111.823 61.0359 112.282 61.0634 112.493 61.0988C112.814 61.1419 113.071 61.2636 113.262 61.4521C113.456 61.6444 113.551 61.88 113.551 62.1627C113.551 62.5474 113.369 62.9125 113.004 63.2501C112.465 63.7487 111.763 64 110.895 64C110.229 64 109.666 63.8508 109.206 63.5524C108.945 63.3797 108.818 63.203 108.818 63.0185C108.818 62.9361 108.838 62.8536 108.873 62.7712C108.933 62.6456 109.056 62.4689 109.238 62.2412C109.262 62.2098 109.436 62.0253 109.769 61.6837C109.587 61.5777 109.464 61.4835 109.389 61.3971C109.313 61.3147 109.278 61.2165 109.278 61.1105C109.278 60.9888 109.329 60.8475 109.424 60.6865C109.516 60.5256 109.746 60.2979 110.098 60.0034ZM111.002 57.1336C110.748 57.1336 110.534 57.2317 110.36 57.4359C110.189 57.6361 110.102 57.9463 110.102 58.3624C110.102 58.9042 110.217 59.3203 110.455 59.6148C110.633 59.8425 110.859 59.9524 111.137 59.9524C111.398 59.9524 111.617 59.8542 111.783 59.6619C111.949 59.4656 112.037 59.1633 112.037 58.7432C112.037 58.2014 111.918 57.7774 111.68 57.4712C111.502 57.2435 111.276 57.1336 111.002 57.1336ZM110.051 61.7269C109.888 61.8996 109.765 62.0645 109.686 62.2137C109.603 62.3629 109.563 62.5042 109.563 62.6298C109.563 62.7947 109.662 62.9361 109.864 63.0617C110.209 63.2737 110.709 63.3797 111.359 63.3797C111.981 63.3797 112.437 63.2698 112.734 63.0538C113.032 62.8379 113.178 62.6063 113.178 62.359C113.178 62.1784 113.091 62.0527 112.913 61.9781C112.73 61.9036 112.378 61.8604 111.846 61.8447C111.066 61.825 110.467 61.7858 110.051 61.7269ZM115.529 57.8677C116.084 57.2121 116.615 56.8823 117.118 56.8823C117.376 56.8823 117.598 56.9491 117.784 57.0747C117.971 57.2043 118.117 57.4163 118.232 57.7107C118.308 57.9188 118.347 58.2328 118.347 58.6568V60.6708C118.347 60.9653 118.371 61.1655 118.419 61.2754C118.454 61.3579 118.518 61.4246 118.601 61.4717C118.684 61.5188 118.843 61.5424 119.069 61.5424V61.7308H116.722V61.5424H116.821C117.039 61.5424 117.194 61.507 117.285 61.4442C117.372 61.3775 117.436 61.2793 117.467 61.1498C117.483 61.0987 117.487 60.9378 117.487 60.6708V58.7354C117.487 58.3074 117.432 57.9934 117.321 57.7971C117.21 57.6008 117.023 57.5066 116.758 57.5066C116.349 57.5066 115.941 57.7303 115.537 58.1779V60.6748C115.537 60.9928 115.557 61.1851 115.592 61.2636C115.644 61.3618 115.707 61.4325 115.794 61.4796C115.878 61.5267 116.052 61.5463 116.31 61.5463V61.7347H113.951V61.5463H114.054C114.296 61.5463 114.459 61.4874 114.546 61.3657C114.629 61.244 114.673 61.0124 114.673 60.6748V58.9277C114.673 58.3624 114.661 58.0208 114.633 57.8952C114.605 57.7696 114.566 57.6871 114.514 57.644C114.463 57.6008 114.387 57.5772 114.3 57.5772C114.201 57.5772 114.086 57.6047 113.951 57.6557L113.872 57.4673L115.307 56.8902H115.529V57.8677ZM127.869 59.8032L128.039 59.8385L127.433 61.7269H121.986V61.5385H122.252C122.549 61.5385 122.763 61.4442 122.89 61.2519C122.961 61.1419 122.997 60.8907 122.997 60.4981V55.9833C122.997 55.5475 122.949 55.2766 122.85 55.1667C122.716 55.0175 122.517 54.939 122.252 54.939H121.986V54.7506H125.173V54.939C124.801 54.9351 124.539 54.9704 124.384 55.0411C124.234 55.1118 124.131 55.2021 124.075 55.3081C124.02 55.418 123.992 55.6771 123.992 56.0854V60.4824C123.992 60.769 124.02 60.9613 124.075 61.0713C124.115 61.1459 124.182 61.1969 124.269 61.2322C124.353 61.2676 124.626 61.2833 125.082 61.2833H125.597C126.14 61.2833 126.517 61.244 126.735 61.1655C126.953 61.087 127.151 60.9456 127.334 60.7454C127.508 60.5491 127.69 60.2351 127.869 59.8032ZM133.434 54.7545L133.509 56.3955H133.311C133.271 56.1089 133.22 55.9009 133.157 55.7792C133.05 55.5829 132.907 55.4337 132.728 55.3395C132.55 55.2452 132.316 55.1981 132.027 55.1981H131.036V60.5216C131.036 60.9496 131.083 61.2205 131.175 61.3265C131.305 61.4717 131.508 61.5424 131.781 61.5424H132.023V61.7308H129.026V61.5424H129.28C129.581 61.5424 129.791 61.4521 129.922 61.2754C129.997 61.1655 130.037 60.9142 130.037 60.5216V55.1981H129.193C128.864 55.1981 128.63 55.2217 128.491 55.2688C128.309 55.3355 128.158 55.4572 128.027 55.6457C127.9 55.8302 127.825 56.0814 127.797 56.3955H127.599L127.674 54.7545H133.434Z" fill="white"/>
<path d="M133.953 61.7269V61.5385H134.219C134.516 61.5385 134.726 61.4442 134.849 61.2558C134.924 61.1419 134.964 60.8907 134.964 60.4981V55.9833C134.964 55.5475 134.917 55.2766 134.817 55.1667C134.683 55.0175 134.484 54.939 134.219 54.939H133.953V54.7506H136.815C137.866 54.7506 138.666 54.8684 139.213 55.1039C139.76 55.3395 140.204 55.736 140.537 56.2856C140.87 56.8392 141.037 57.4752 141.037 58.1975C141.037 59.1672 140.74 59.9799 140.145 60.6316C139.479 61.3579 138.46 61.723 137.097 61.723H133.953V61.7269ZM135.959 61.2165C136.399 61.3147 136.764 61.3618 137.061 61.3618C137.862 61.3618 138.524 61.0831 139.055 60.5256C139.582 59.9681 139.848 59.2104 139.848 58.2564C139.848 57.2946 139.582 56.5329 139.055 55.9794C138.524 55.4219 137.846 55.1471 137.017 55.1471C136.708 55.1471 136.355 55.1981 135.959 55.2963V61.2165Z" fill="white"/>
<path fill-rule="evenodd" clip-rule="evenodd" d="M14.73 14.4473C15.5664 14.4473 15.9271 14.4316 16.1094 13.9801C16.1094 15.9274 16.1094 17.8785 16.1094 19.8258C15.4078 16.9638 13.9927 15.5937 11.8918 15.0676C6.79022 14.2549 3.23061 15.523 3.05619 21.349C3.57151 25.0433 7.1113 27.8856 12.6331 30.1744C16.2402 31.8744 19.1339 34.1003 18.6781 38.78C18.8009 42.8198 14.8529 45.4776 10.3498 45.6425C8.34012 45.7171 6.2432 45.2774 3.33367 44.1703C1.63314 43.7031 1.46666 44.606 1.29621 45.3166C1.29621 42.9218 1.29621 40.5231 1.29621 38.1283C2.53692 43.5657 6.97653 44.5629 8.88714 44.7749C13.5923 45.2892 16.1808 43.2477 15.9271 38.674C15.606 35.3763 12.5934 33.3858 8.83165 31.7566C1.24468 28.6237 0.138738 23.8852 0 21.1056C0.729364 16.9049 3.27421 13.772 9.88606 13.7642C11.6579 13.7642 13.9451 14.5965 14.73 14.4473Z" fill="white"/>
<path fill-rule="evenodd" clip-rule="evenodd" d="M18.7851 44.9908C21.2031 44.9908 23.6251 44.9908 26.047 44.9908C25.9717 44.8809 25.9004 44.7709 25.825 44.6649C23.2564 44.6885 22.535 43.6638 22.9631 41.9953C25.2503 34.1553 27.5375 26.3153 29.8247 18.4753C32.9284 25.5301 36.0322 32.5928 39.1359 39.6516C39.8019 41.167 40.4044 42.6667 39.2113 43.8287C37.9269 44.7199 37.4592 44.2331 37.2689 44.9908C40.444 44.9829 43.6192 44.979 46.7943 44.9712C46.9013 44.7474 46.7308 44.4451 45.8033 44.2292C43.8134 43.8641 43.0008 42.1249 41.6134 38.78C38.0776 30.5239 34.5417 22.2638 31.0059 14.0076C30.8275 14.0743 30.6531 14.145 30.4747 14.2117C27.5335 23.5632 24.5883 32.9147 21.6471 42.2662C21.1 43.8837 20.117 44.5118 18.7851 44.9908Z" fill="white"/>
<path fill-rule="evenodd" clip-rule="evenodd" d="M46.1838 48.8578C46.2829 48.7557 46.3345 48.5673 46.4772 48.5477C49.3153 48.1237 50.9366 46.7378 50.8058 43.9544C50.7542 30.8929 50.7067 17.8275 50.6552 4.76604C50.4807 3.60005 49.4501 3.41161 48.2768 3.39983C44.6458 3.39983 41.0149 3.39983 37.3879 3.39983C34.6171 3.35272 32.5836 4.62863 31.9493 7.57306C31.6243 8.58202 31.4776 10.4664 31.2239 10.9807V0C32.0841 1.50362 33.4992 2.03362 35.4019 2.06502C47.1748 1.83339 58.9398 1.83339 70.7127 2.06502C72.6154 2.03362 74.0305 1.50362 74.8907 0V10.9807C74.637 10.4664 74.4943 8.58202 74.1653 7.57306C73.535 4.62863 71.4975 3.35272 68.7307 3.3959C65.0997 3.3959 61.4688 3.3959 57.8418 3.3959C56.6645 3.41161 55.6378 3.59612 55.4634 4.76212C55.4119 17.8236 55.3643 30.889 55.3128 43.9504C55.178 46.73 56.8032 48.1197 59.6414 48.5437C59.7841 48.5634 59.8356 48.7518 59.9347 48.8539C55.3524 48.8578 50.7701 48.8578 46.1838 48.8578Z" fill="white"/>
<path fill-rule="evenodd" clip-rule="evenodd" d="M89.8505 48.8578C89.9496 48.7557 90.0012 48.5673 90.1439 48.5477C92.982 48.1237 94.6033 46.7378 94.4725 43.9544C94.4209 30.8929 94.3734 17.8275 94.3218 4.76604C94.1474 3.60005 93.1168 3.41161 91.9435 3.39983C88.3125 3.39983 84.6815 3.39983 81.0545 3.39983C78.2877 3.35664 76.2503 4.63256 75.62 7.57698C75.295 8.58594 75.1483 10.4704 74.8946 10.9847V0C75.7548 1.50362 77.1699 2.03362 79.0726 2.06502C90.8455 1.83339 102.61 1.83339 114.383 2.06502C116.286 2.03362 117.701 1.50362 118.561 0V10.9807C118.308 10.4664 118.165 8.58202 117.836 7.57306C117.206 4.62863 115.168 3.35272 112.401 3.3959C108.77 3.3959 105.139 3.3959 101.512 3.3959C100.335 3.41161 99.3085 3.59612 99.1341 4.76212C99.0825 17.8236 99.035 30.889 98.9834 43.9504C98.8487 46.73 100.474 48.1197 103.308 48.5437C103.451 48.5634 103.502 48.7518 103.601 48.8539C99.0191 48.8578 94.4368 48.8578 89.8505 48.8578Z" fill="white"/>
<path fill-rule="evenodd" clip-rule="evenodd" d="M124.967 44.9908C127.385 44.9908 129.807 44.9908 132.229 44.9908C132.154 44.8809 132.082 44.771 132.007 44.665C129.438 44.6885 128.717 43.6638 129.149 41.9953C131.436 34.1553 133.723 26.3153 136.011 18.4753C139.114 25.534 142.214 32.5967 145.318 39.6555C145.984 41.1709 146.586 42.6706 145.393 43.8327C144.109 44.7238 143.641 44.237 143.451 44.9947C146.626 44.9869 149.801 44.9829 152.976 44.9751C153.083 44.7513 152.913 44.449 151.985 44.2331C149.995 43.868 149.183 42.1288 147.795 38.784C144.26 30.5278 140.724 22.2677 137.188 14.0115C137.009 14.0783 136.835 14.1489 136.657 14.2157C133.715 23.5672 130.77 32.9187 127.829 42.2702C127.282 43.8837 126.299 44.5118 124.967 44.9908Z" fill="white"/>
<path fill-rule="evenodd" clip-rule="evenodd" d="M131.745 14.0076C129.327 14.0076 126.905 14.0076 124.483 14.0076C124.559 14.1175 124.63 14.2275 124.705 14.3335C127.274 14.3138 127.992 15.3346 127.563 17.0031C125.276 24.8431 122.989 32.6831 120.702 40.5231C117.598 33.4644 114.498 26.4017 111.395 19.3429C110.729 17.8275 110.126 16.3278 111.319 15.1658C112.604 14.2746 113.071 14.7614 113.262 14.0037C110.086 14.0115 106.911 14.0155 103.736 14.0233C103.629 14.2471 103.8 14.5494 104.727 14.7653C106.717 15.1304 107.53 16.8696 108.917 20.2145C112.453 28.4706 115.989 36.7307 119.525 44.9869C119.703 44.9201 119.877 44.8495 120.056 44.7827C122.997 35.4312 125.942 26.0798 128.883 16.7283C129.43 15.1147 130.413 14.4866 131.745 14.0076Z" fill="white"/>
</g>
<defs>
<clipPath id="clip0_3_5">
<rect width="153" height="64" fill="white"/>
</clipPath>
</defs>
</svg>
