<svg width="65" height="65" viewBox="0 0 65 65" fill="none" xmlns="http://www.w3.org/2000/svg">
<g clip-path="url(#clip0_89_723)">
<path d="M32.5 65C50.4493 65 65 50.4493 65 32.5C65 14.5507 50.4493 0 32.5 0C14.5507 0 0 14.5507 0 32.5C0 50.4493 14.5507 65 32.5 65Z" fill="#008EDE"/>
<path d="M42.5897 30.2144L28.9318 20.849C28.3186 20.403 27.6497 20.1801 27.148 20.1801C26.0888 20.1801 25.4756 21.0162 25.4756 22.3542V42.59C25.4756 43.9837 26.0888 44.7641 27.0922 44.7641C27.6497 44.7641 28.2629 44.5411 28.8761 44.0951L42.5339 34.7298C43.4258 34.1166 43.9276 33.3361 43.9276 32.4442C43.9276 31.5523 43.4816 30.8276 42.5897 30.2144Z" fill="white"/>
</g>
<defs>
<clipPath id="clip0_89_723">
<rect width="65" height="65" fill="white"/>
</clipPath>
</defs>
</svg>
